<svg id="Слой_1" data-name="Слой 1" xmlns="http://www.w3.org/2000/svg" viewBox="0 0 1133.86 1158.18"><defs><style>.cls-1{fill:#999;}.cls-2{fill:#fff;}</style></defs><title>Монтажная область 1</title><path class="cls-1" d="M144,1060.69c-11.92-4.1-16.14-12.59-16.13-25q.26-335.25.16-670.49a40.39,40.39,0,0,1,.77-9.41,19.67,19.67,0,0,1,20.81-15A20,20,0,0,1,167.86,359c.21,2.32.13,4.66.13,7q0,323.75,0,647.49v6.85H368v-5.25q0-45.5,0-91,0-23.27,23.38-23.31,36.75,0,73.5,0c15.31,0,23.17,7.79,23.18,23q0,45.5,0,91c0,1.8,0,3.59,0,5.68H687.63v-873l-41.44,11.82-490,139.94c-12.72,3.63-23.25-1-27-11.81s1.76-22.11,13.3-25.69c14.61-4.54,29.38-8.59,44.1-12.79l513-146.49c16.8-4.8,28.37,3.9,28.37,21.4q0,456,.13,912c0,12.38-4.21,20.87-16.13,25H464c-12.16-4.25-16.25-13.09-16.07-25.56.43-29.49.14-59,.14-88.49V941H408v5.69c0,29.66-.29,59.33.14,89,.18,12.39-4.22,20.87-16.14,25Z"/><path class="cls-1" d="M784,1060.69l-4-1.82c-8.25-3.78-13.09-12.64-11.58-21.22a20,20,0,0,1,17.94-16.82c2-.19,4-.13,6-.13H968v-5.49q0-337.95.11-675.89c0-4.09-1.35-5.66-4.95-7.09q-89.73-35.68-179.35-71.62c-11.38-4.55-17.1-12.84-15.63-22.63,2-13.15,14.94-20.48,27.92-15.47,16.14,6.23,32.16,12.78,48.22,19.2,48.81,19.52,97.56,39.16,146.46,58.46,8.29,3.27,14.45,7.92,17.21,16.53v728a23.76,23.76,0,0,1-16,16Z"/><path class="cls-2" d="M392,1060.69c11.92-4.1,16.31-12.58,16.14-25-.42-29.66-.14-59.32-.14-89V941h40.06v5.6c0,29.5.29,59-.14,88.49-.18,12.47,3.92,21.31,16.07,25.56Z"/><path class="cls-1" d="M992,1060.69a23.76,23.76,0,0,0,16-16v16Z"/><path class="cls-1" d="M868.13,740.69c12.66,0,25.33,0,38,0,13.61.06,21.83,8.2,21.86,21.75q.09,38.24,0,76.48c0,13.55-8.25,21.71-21.87,21.74q-38.24.08-76.48,0c-13.3,0-21.57-8.25-21.61-21.49q-.11-38.49,0-77c0-13.24,8.31-21.42,21.62-21.49C842.47,740.63,855.3,740.69,868.13,740.69Zm-19.77,40.22v39.38h39.37V780.91Z"/><path class="cls-1" d="M588.12,740.69c12.66,0,25.33,0,38,0,13.62.06,21.84,8.19,21.87,21.74q.09,38.24,0,76.48c0,13.56-8.25,21.72-21.86,21.75q-38.24.08-76.48,0c-13.3,0-21.58-8.25-21.62-21.49q-.11-38.49,0-77c0-13.24,8.31-21.42,21.61-21.5C562.46,740.63,575.29,740.69,588.12,740.69ZM607.78,781H568.4v39.38h39.38Z"/><path class="cls-1" d="M428.25,740.69c12.66,0,25.33-.05,38,0,13.55.07,21.71,8.26,21.74,21.88q.08,38.24,0,76.48c0,13.3-8.25,21.57-21.5,21.61q-38.49.11-77,0c-13.24,0-21.45-8.31-21.49-21.62q-.1-38.49,0-77c0-13,8.31-21.18,21.24-21.38h39ZM447.75,781H408.34v39.33h39.42Z"/><path class="cls-1" d="M268.35,740.69c12.66,0,25.33-.06,38,0,13.31.07,21.6,8.24,21.64,21.47q.11,38.49,0,77c0,13.25-8.31,21.48-21.59,21.52q-38.49.1-77,0c-13,0-21.34-8.29-21.38-21.21q-.14-38.74,0-77.48c0-12.94,8.36-21.1,21.33-21.28h39Zm19.3,79.78V781.09H248.27v39.38Z"/><path class="cls-1" d="M808,600.56c0-12.66,0-25.33,0-38,.06-13.61,8.2-21.83,21.75-21.86q38.24-.09,76.48,0c13.55,0,21.71,8.25,21.74,21.87q.08,38.24,0,76.48c0,13.3-8.25,21.57-21.5,21.61q-38.49.11-77,0c-13.24,0-21.41-8.31-21.49-21.62C807.94,626.22,808,613.39,808,600.56Zm79.73,19.91V581H848.36v39.46Z"/><path class="cls-1" d="M588.12,540.69c12.66,0,25.33,0,38,0,13.62.06,21.84,8.2,21.87,21.75q.09,38.24,0,76.48c0,13.55-8.25,21.72-21.87,21.75q-38.24.08-76.48,0c-13.3,0-21.58-8.25-21.61-21.49q-.11-38.49,0-77c0-13.24,8.31-21.42,21.61-21.5C562.46,540.63,575.29,540.69,588.12,540.69Zm-19.77,40.23V620.3h39.39V580.92Z"/><path class="cls-1" d="M488,601.15c0,12.5,0,25,0,37.49-.06,13.9-8.16,22-22.08,22q-38,.07-76,0c-13.63,0-21.88-8.17-21.91-21.7q-.1-38.24,0-76.48c0-13.57,8.23-21.76,21.82-21.79q38-.08,76,0c14.16,0,22.14,8.13,22.17,22.45C488,575.82,488,588.48,488,601.15Zm-79.78,19.28h39.47V581H408.22Z"/><path class="cls-1" d="M268.38,540.69c12.66,0,25.33-.06,38,0,13.29.08,21.57,8.26,21.61,21.5q.11,38.49,0,77c0,13.24-8.32,21.45-21.62,21.48q-38.49.1-77,0c-13,0-21.3-8.31-21.35-21.24q-.13-38.74,0-77.48c0-12.92,8.38-21.14,21.37-21.23S255.39,540.69,268.38,540.69Zm-20.16,79.64H287.6V581H248.22Z"/><path class="cls-1" d="M328,400.91c0,12.66.05,25.33,0,38-.07,13.57-8.24,21.75-21.84,21.78q-38.24.08-76.48,0c-13.32,0-21.61-8.23-21.64-21.46q-.12-38.49,0-77c0-13.25,8.31-21.49,21.58-21.52q38.24-.1,76.48,0c13.63,0,21.83,8.18,21.9,21.71C328.05,375.25,328,388.08,328,400.91Zm-79.76,19.5h39.44V381.06H248.24Z"/><path class="cls-1" d="M488,400.81c0,12.66,0,25.33,0,38-.06,13.62-8.19,21.84-21.74,21.87q-38.24.09-76.48,0c-13.55,0-21.72-8.25-21.75-21.86q-.08-38.24,0-76.48c0-13.3,8.25-21.58,21.49-21.62q38.49-.11,77,0c13.24,0,21.42,8.31,21.5,21.61C488.06,375.15,488,388,488,400.81Zm-40.2-19.88H408.28v39.43H447.8Z"/><path class="cls-1" d="M528,400.19c0-12.5,0-25,0-37.49.06-13.87,8.19-22,22.13-22q38-.07,76,0c13.61,0,21.83,8.19,21.87,21.75q.09,38.24,0,76.48c0,13.55-8.25,21.71-21.87,21.74q-38.24.08-76.48,0c-13.3,0-21.53-8.25-21.62-21.49C527.94,426.18,528,413.18,528,400.19Zm40.19,20.12h39.56V381H568.19Z"/><path class="cls-1" d="M867.74,460.69c-12.66,0-25.33.05-38,0-13.54-.07-21.7-8.26-21.73-21.88q-.08-38.24,0-76.48c0-13.29,8.26-21.56,21.5-21.6q38.49-.11,77,0c13.23,0,21.44,8.32,21.48,21.63q.1,38.49,0,77c0,13-8.32,21.25-21.25,21.35S880.73,460.69,867.74,460.69Zm-19.51-40.35H887.6V381H848.23Z"/><path class="cls-2" d="M848.36,780.91h39.37v39.38H848.36Z"/><path class="cls-2" d="M607.78,781v39.38H568.4V781Z"/><path class="cls-2" d="M447.75,781v39.33H408.34V781Z"/><path class="cls-2" d="M287.65,820.47H248.27V781.09h39.38Z"/><path class="cls-2" d="M887.73,620.47H848.36V581h39.37Z"/><path class="cls-2" d="M568.35,580.92h39.39V620.3H568.35Z"/><path class="cls-2" d="M408.22,620.43V581h39.47v39.38Z"/><path class="cls-2" d="M248.22,620.34V581H287.6v39.38Z"/><path class="cls-2" d="M248.24,420.41V381.06h39.44v39.35Z"/><path class="cls-2" d="M447.8,380.93v39.43H408.28V380.93Z"/><path class="cls-2" d="M568.19,420.31V381h39.56v39.32Z"/><path class="cls-2" d="M848.23,420.34V381H887.6v39.39Z"/></svg>