<svg xmlns="http://www.w3.org/2000/svg" viewBox="0 0 75.063 81.267"><path d="M.517.005H31.16c2.606 0 5.117-.046 7.521.151 6.836.561 11.611 3.848 15.246 7.724 2.382 2.54 4.415 5.602 5.755 9.591 1.265 3.766 1.664 9.007.707 13.378-1.32 6.023-4.633 10.749-8.633 14.337-.919.824-2.113 1.631-3.382 2.373-.357.208-.905.653-1.212.656-.526.005-1.19-.887-1.565-1.262-1.448-1.449-2.745-2.93-4.189-4.291-.91-.974-1.885-1.884-2.827-2.827-.931-.93-1.785-1.961-2.878-2.726-.728.365-1.26.927-1.666 1.615.617.984 1.515 1.767 2.322 2.575 5.66 5.661 11.213 11.614 16.912 17.315 4.893 4.894 9.728 9.831 14.64 14.741.816.816 1.557 1.708 2.373 2.524.807.807 1.741 1.491 2.372 2.473.604.677 1.296 1.296 1.969 1.969.174.174.555.437.404.757-2.863-.064-6.671.368-9.642.101-.654-.059-1.903-1.536-2.574-2.221-5.285-5.39-10.55-10.802-15.852-16.104-4.628-4.628-9.125-9.079-13.63-13.781-1.493-1.559-2.914-3.167-4.442-4.695-5.999-5.999-11.987-12.29-18.123-18.426-1.473-1.473-2.996-3.046-4.544-4.594-1.527-1.528-2.948-3.166-3.987-5.149C.693 13.266.215 9.336.216 4.548.216 2.983.11 1.059.367.105a.354.354 0 0 1 .15-.1zm60.478 81.074c-3.181.084-6.714.085-9.894 0-.737-.436-1.298-1.098-1.918-1.666-1.826-1.671-3.433-3.701-5.301-5.401-8.333-8.31-16.358-16.859-24.736-25.241-2.066-2.067-4.146-4.163-6.16-6.361-1.971-2.153-4.191-4.142-6.26-6.209-2.055-2.055-4.038-4.397-5.149-7.32C.41 25.809.199 22.032.215 17.977c-.004-.071-.009-.143.051-.151.364.062.584.808.808 1.212.688 1.243 1.735 2.285 2.524 3.282 6.94 6.983 13.874 14.231 20.899 21.252 1.161 1.162 2.342 2.332 3.483 3.534 3.385 3.566 6.769 7.224 10.298 10.752 7 7.001 14.07 14.081 21 21.101.517.762 1.395 1.163 1.717 2.12zm-14.135-.051c-2.11.181-4.763.101-7.169.101-.794 0-1.707.142-2.372 0-.367-.078-1.002-.799-1.464-1.262-.508-.508-.921-1.022-1.314-1.414-.964-.964-1.918-1.851-2.726-2.726-.443-.481-.811-1.004-1.262-1.464-4.9-4.998-10.02-10.223-14.891-15.093-1.784-1.784-3.577-3.678-5.401-5.502C5.667 49.073.752 45.239.164 36.504c-.111-1.651-.245-3.621-.101-5.25-.015-.082.048-.087.051-.151.081-.014.086.048.151.05 1.889 4.901 5.98 8.152 9.49 11.662 3.519 3.518 6.873 7.246 10.399 10.702 7.107 6.966 13.853 14.274 20.849 21.354 1.565 1.442 2.974 3.023 4.493 4.543.488.486 1.158.901 1.364 1.614zm-13.782 0c-3.197.084-6.747.084-9.944 0-.781-.408-1.351-1.097-1.969-1.716-1.208-1.208-2.461-2.447-3.635-3.736-2.861-3.141-6.117-6.076-9.036-9.238-2.547-2.427-5.119-4.7-6.513-8.178C.591 54.692-.024 50.579.012 45.438c.026-.041.053-.082.051-.151h.151c1.232 2.989 3.233 5.353 5.401 7.522 6.426 6.428 12.887 12.824 19.284 19.334 1.958 2.275 4.351 4.23 6.311 6.562.319.381.669.801 1.01 1.161.318.338.867.611.858 1.162z"/></svg>