<svg id="Слой_1" xmlns="http://www.w3.org/2000/svg" viewBox="0 0 274.2 65.8"><style>.st0{fill:#2488e4}</style><path class="st0" d="M6.5 25c1.2-1.2 6.6-6.9 9.1-9.4 2.4-2.5 2.5-2.9 2.5-3.3 0-.3-.2-.6-.5-.8-.3-.1-.4-.2-.4-.4s.2-.2.6-.2c1.2 0 1 .1 2.4.1 1.2 0 3.6-.1 4.2-.1.6 0 .7.1.7.3s-.1.2-.4.3c-.8.1-1.5.2-2 .5-1 .4-1.7.9-4.1 3.2-3.5 3.4-8 7.9-9.1 9 2.4 2.7 9.7 10 11.5 11.8 3.3 3.1 4.6 3.9 6.6 4.3.4.1.8.1 1.2.1.3 0 .6.1.6.3 0 .2-.2.3-.6.3h-2.9c-3.5 0-4.4-.4-6.2-1.9-2.4-1.9-9.5-9.5-13-13.7v4.1c0 3.8 0 7 .2 8.6.1 1.2.4 2 1.5 2.2.6.1 1.4.2 1.6.2.4 0 .5.2.5.3 0 .2-.2.3-.6.3-2.2 0-4.7-.1-4.9-.1-.2 0-2.5.1-3.7.1-.4 0-.6 0-.6-.3 0-.1.1-.3.4-.3.2 0 .7 0 1-.1.8-.2 1-1.1 1.2-2.2.2-1.7.2-4.8.2-8.6v-7c0-6.2 0-7.3-.1-8.6-.1-1.4-.5-2-1.4-2.2-.4-.1-1.2-.2-1.4-.2-.3 0-.4-.1-.4-.2 0-.2.2-.3.6-.3 1.3 0 4 .1 4.2.1.2 0 2.7-.1 3.9-.1.4 0 .6.1.6.3 0 .2-.1.2-.4.3-.4 0-.5 0-.9.1-1.1.1-1.4.9-1.5 2.3-.1 1.3-.1 2.4-.1 8.6V25zm32.4 11.3c4.9-6 15.2-18.7 19.1-23.5 1.5-1.8 2.1-2.4 2.6-2.4.4 0 .6.3.6 3.8 0 7.4 0 14.5.1 21.9 0 2.9.4 4 1.6 4.2.2 0 .9.1 1.5.2.5 0 .6.2.6.3 0 .2-.2.3-.6.3-1.4 0-4.9-.1-5.6-.1-.9 0-2.1.1-3.6.1-.5 0-.6-.1-.6-.2 0-.2.1-.3.6-.3.4 0 .8-.1 1.2-.2 1.2-.2 1.3-1.9 1.4-4.9.1-6.5.1-13.2.2-19.9-2.1 2.6-18.7 23.2-20.3 25-.8.9-1.3 1.1-1.5 1.1-.4 0-.5-.3-.5-1.9 0-6.6.1-15.5 0-23.1 0-4.4-.5-4.7-1.7-4.9-.5-.1-1-.1-1.3-.1-.3 0-.4-.1-.4-.3 0-.3.4-.3.8-.3 1.2 0 3.7.1 4.4.1 1.3 0 2.9-.1 4-.1.5 0 .7.1.7.2 0 .2-.1.3-.5.3-.5 0-.7 0-1 .1-1.1.2-1.4.7-1.5 4.1l-.3 20.5zm38.3.9c-3.9-3.5-4.8-8-4.8-11.8 0-2.7.9-7.3 4.5-10.8 2.4-2.4 6-4.3 12.1-4.3 1.6 0 3.8.1 5.8.5 1.5.3 2.7.4 4.2.6.3 0 .4.2.4.4 0 .3-.1.8-.2 2.2-.1 1.3-.1 3.5-.1 4.1 0 .6-.1.8-.4.8-.3 0-.3-.3-.3-.8 0-1.5-.6-3.2-1.7-4.1-1.4-1.2-4.5-2.3-7.9-2.3-5.3 0-7.7 1.5-9.1 2.9-2.9 2.8-3.6 6.3-3.6 10.4 0 7.6 5.8 14.5 14.3 14.5 3 0 5.3-.4 6.9-2 .8-.9 1.4-2.6 1.5-3.3.1-.4.2-.6.4-.6s.3.3.3.6-.5 3.7-.9 5.1c-.2.8-.3.8-1 1.2-1.6.6-4.6.9-7.2.9-6.1.1-10.1-1.4-13.2-4.2m34.9-.6c-.4 1-.6 1.9-.6 2.7 0 .8.8 1.2 1.4 1.2h.4c.4 0 .5.1.5.2 0 .2-.4.3-.7.3-1 0-2.5-.1-3-.1-.4 0-2.6.1-4.5.1-.5 0-.8-.1-.8-.3 0-.2.2-.2.6-.2.3 0 .6 0 1-.1 1.8-.2 2.6-1.7 3.3-3.7l9-24.7c.5-1.3.6-1.5.9-1.5.2 0 .4.2.9 1.4.6 1.5 6.8 17.9 9.3 24 1.4 3.5 2.6 4.2 3.4 4.4.6.2 1.2.2 1.6.2.2 0 .4 0 .4.2s-.4.3-.8.3c-.6 0-3.5 0-6.2-.1-.8 0-1.2 0-1.2-.3 0-.2.1-.2.3-.3.2-.1.5-.4.2-1.1L119.2 17c-.2-.6-.4-.6-.6 0l-6.5 19.6zm55.3-10.2c0-9.5-5.8-14.7-12.1-14.7-6.6 0-11.6 4.4-11.6 13.1 0 9.3 5.6 15.2 12.7 15.2 3.6 0 11-2.1 11-13.6m-27.5-.5c0-6.4 4.7-15.5 15.7-15.5 8.9 0 15.6 5.6 15.6 14.9 0 8.9-6.3 16.3-15.9 16.3-10.8-.1-15.4-8.6-15.4-15.7zm43.3-3.5c0-6.2 0-7.3-.1-8.6-.1-1.4-.4-2-1.7-2.3-.3-.1-1-.1-1.4-.1-.2 0-.3-.1-.3-.2 0-.2.2-.3.6-.3 1.8 0 4.2.1 4.5.1.9 0 3.2-.1 5-.1 5 0 6.8 1.7 7.4 2.3.9.8 2 2.6 2 5.2 0 5.2-4.1 9-9.8 9h-.8c-.2 0-.4-.1-.4-.3 0-.3.2-.4 1.1-.4 3.9 0 6.9-2.6 6.9-6.8 0-1-.1-3.7-2.2-5.8-2.1-2.1-4.5-2-5.4-2-.7 0-1.4.1-1.7.2-.2.1-.3.4-.3.8v16.3c0 3.8 0 7 .2 8.6.1 1.2.4 2 1.6 2.2.6.1 1.4.2 1.8.2.2 0 .3.1.3.2 0 .2-.2.3-.6.3-2.2 0-4.7-.1-4.9-.1-.1 0-2.6.1-3.8.1-.4 0-.6-.1-.6-.3 0-.1.1-.2.3-.2.4 0 .8-.1 1.2-.2.8-.2 1-1 1.2-2.2.2-1.7.2-4.8.2-8.6v-7zm51.4 4c0-9.5-5.8-14.7-12.1-14.7-6.6 0-11.6 4.4-11.6 13.1 0 9.3 5.6 15.2 12.7 15.2 3.6 0 11-2.1 11-13.6m-27.4-.5c0-6.4 4.7-15.5 15.7-15.5 8.9 0 15.6 5.6 15.6 14.9 0 8.9-6.3 16.3-15.9 16.3-10.9-.1-15.4-8.6-15.4-15.7zm53.4 13.2c3.5 0 4.3-.1 4.6-.1.2 0 .2-.1.1-.4-2.3-5.9-5.1-14.4-8.1-22.1-.1-.2-.2-.2-.2 0l-6.8 20.1c-.4 1-.7 1.9-.7 2.2 0 .2.1.2.2.2.7.1 1.9.1 4.2.1h6.7zm-8.8 1.7c-3 0-4.1 0-5.2.1-2.1.1-2.7.8-2.8 2.6 0 .4-.1.7-.4.7-.2 0-.3-.2-.3-.7 0-2.5-.2-3.8-.2-4.4 0-.3 0-.4.2-.4.7.1 2.1.2 3.5.2.3 0 .4-.1.6-.5l9.5-26.4c.5-1.4.8-1.7 1-1.7.2 0 .4.3.8 1.3.8 1.9 7.1 18.5 10.4 26.9.2.3.3.4.6.4.8 0 3.4-.1 4.2-.2.2 0 .3 0 .2.3-.1.6-.5 2.7-.5 4.6 0 .4-.1.6-.3.6-.2 0-.3-.2-.4-.6-.1-1.7-.9-2.6-2.6-2.7-1.2-.1-3.6-.1-5.2-.1h-13.1z"/><path d="M8.8 62.2v2.2c0 .1 0 .1.1.1h1.3c.1 0 .1 0 .1.1s-.1.6-.1 1.1c0 .1 0 .2-.1.2s-.1-.1-.1-.2c-.1-.4-.2-.6-.6-.6H2.5c-.1 0-.2 0-.2-.1 0 0 0-.1.1-.1h.3c.3-.1.3-.4.3-.7v-5.7c0-.3-.1-.5-.4-.6h-.3s-.1 0-.1-.1 0-.1.2-.1h2.1c.1 0 .2 0 .2.1 0 0 0 .1-.1.1h-.2c-.3 0-.3.2-.4.6v5.9c0 .1 0 .1.1.1h4v-6.2c0-.3-.1-.5-.4-.6h-.3s-.1 0-.1-.1 0-.1.2-.1h2.1c.1 0 .2 0 .2.1 0 0 0 .1-.1.1h-.2c-.3 0-.3.2-.4.6v3.9zm11.3-1.7v-2.1c0-.3-.1-.5-.4-.6h-.3c-.1 0-.1 0-.1-.1s0-.1.2-.1h3.3c.2 0 .4 0 .4-.1h.1v.1c0 .1-.1.2-.1.5v.6c0 .1 0 .2-.1.2s-.1 0-.1-.1v-.3c-.1-.2-.3-.3-.7-.4H21s-.1 0-.1.1v2.7c0 .1 0 .1.1.1h1.5c.3 0 .4 0 .5-.2 0-.1.1-.1.1-.1v.1c0 .1 0 .2-.1.5v.7c0 .1 0 .1-.1.1s-.1-.1-.1-.2v-.3c0-.1-.2-.3-.5-.3h-1.4s-.1 0-.1.1V64c0 .4.1.6.3.7.2.1.4.1.8.1.3 0 .6 0 .9-.1.3-.1.4-.3.5-.7 0-.1 0-.1.1-.1s.1.1.1.1c0 .1-.1.7-.1.9-.1.1-.1.1-.5.1h-3.3c-.1 0-.2 0-.2-.1l.1-.1h.2c.2 0 .3-.2.4-.9v-3.4zm18.4.2l.1-.3v-2.1c0-.3-.1-.5-.4-.6h-.3s-.1 0-.1-.1 0-.1.2-.1h2.1c.1 0 .2 0 .2.1 0 0 0 .1-.1.1H40c-.3 0-.3.2-.4.6v5.9c0 .3.1.5.4.5h.4c.1 0 .1 0 .1.1 0 0 0 .1-.2.1h-2.2c-.1 0-.2 0-.2-.1 0 0 0-.1.1-.1h.3c.2 0 .2-.3.3-.5v-3.1s0-.1-.1-.1h-4.1s-.1 0-.1.1v3.1c0 .3.1.5.4.5h.4c.1 0 .1 0 .1.1 0 0 0 .1-.2.1h-2.2c-.1 0-.2 0-.2-.1 0 0 0-.1.1-.1h.3c.2 0 .2-.3.3-.5v-5.9c0-.3-.1-.5-.4-.6h-.3s-.1 0-.1-.1 0-.1.2-.1h2.1c.1 0 .2 0 .2.1 0 0 0 .1-.1.1h-.2c-.3 0-.3.2-.4.6v2.3s0 .1.1.1h4.1zm13.8 1.5v2.1c0 .3.1.5.4.5h.4c.1 0 .1 0 .1.1 0 0 0 .1-.2.1h-2.2c-.1 0-.2 0-.2-.1 0 0 0-.1.1-.1h.3c.2 0 .2-.3.3-.5v-6.2h-1.4c-.6 0-.8.1-1 .3-.1.2-.1.2-.2.3 0 .1-.1.1-.1.1v-.1c0-.1.2-.9.2-1 0-.1.1-.2.1-.2.1 0 .2.1.4.1h5.4v1.2c0 .1 0 .1-.1.1 0 0-.1 0-.1-.2v-.1c0-.3-.3-.5-1.2-.5h-1.2v4.1zm12.3-1.7v-2.1c0-.3-.1-.5-.4-.6h-.3s-.1 0-.1-.1 0-.1.2-.1h2.3c1.2 0 1.7.4 1.8.6.2.2.5.6.5 1.3 0 1.3-1 2.2-2.4 2.2H66s-.1 0-.1-.1.1-.1.3-.1c.9 0 1.7-.6 1.7-1.7 0-.2 0-.9-.5-1.4-.5-.5-1.1-.5-1.3-.5-.2 0-.3 0-.4.1-.1 0-.1.1-.1.2v6.1c0 .3.1.5.4.5h.4c.1 0 .1 0 .1.1 0 0 0 .1-.2.1h-2.1c-.1 0-.2 0-.2-.1 0 0 0-.1.1-.1h.3c.2 0 .2-.3.3-.5v-3.8zm30 .2l.1-.3v-2.1c0-.3-.1-.5-.4-.6H94s-.1 0-.1-.1 0-.1.2-.1h2.1c.1 0 .2 0 .2.1 0 0 0 .1-.1.1h-.2c-.3 0-.3.2-.4.6v5.9c0 .3.1.5.4.5h.4c.1 0 .1 0 .1.1 0 0 0 .1-.2.1h-2.2c-.1 0-.2 0-.2-.1 0 0 0-.1.1-.1h.3c.2 0 .2-.3.3-.5v-3.1s0-.1-.1-.1h-4.1s-.1 0-.1.1v3.1c0 .3.1.5.4.5h.4c.1 0 .1 0 .1.1 0 0 0 .1-.2.1h-2.2c-.1 0-.2 0-.2-.1 0 0 0-.1.1-.1h.3c.2 0 .2-.3.3-.5v-5.9c0-.3-.1-.5-.4-.6h-.3s-.1 0-.1-.1 0-.1.2-.1h2.1c.1 0 .2 0 .2.1 0 0 0 .1-.1.1h-.2c-.3 0-.3.2-.4.6v2.3s0 .1.1.1h4.1zm12-.2v-2.1c0-.3-.1-.5-.4-.6h-.3c-.1 0-.1 0-.1-.1s0-.1.2-.1h3.3c.2 0 .4 0 .4-.1h.1v.1c0 .1-.1.2-.1.5v.6c0 .1 0 .2-.1.2s-.1 0-.1-.1v-.3c-.1-.2-.3-.3-.7-.4h-1.3s-.1 0-.1.1v2.7c0 .1 0 .1.1.1h1.5c.3 0 .4 0 .5-.2 0-.1.1-.1.1-.1v.1c0 .1 0 .2-.1.5v.7c0 .1 0 .1-.1.1s-.1-.1-.1-.2v-.3c0-.1-.2-.3-.5-.3h-1.4s-.1 0-.1.1V64c0 .4.1.6.3.7.2.1.4.1.8.1.3 0 .6 0 .9-.1.3-.1.4-.3.5-.7 0-.1 0-.1.1-.1s.1.1.1.1c0 .1-.1.7-.1.9-.1.3-.1.3-.5.3h-3.3c-.1 0-.2 0-.2-.1l.1-.1h.2c.2 0 .3-.2.4-.9v-3.6zm16.5 4.1h1.1s.1 0 0-.1c-.6-1.4-1.3-3.5-2-5.4h-.1l-1.7 4.9c-.1.2-.2.5-.2.5h2.9zm-2.1.4h-1.3c-.5 0-.7.2-.7.6 0 .1 0 .2-.1.2 0 0-.1 0-.1-.2 0-.6 0-.9-.1-1.1 0-.1 0-.1.1-.1h.9c.1 0 .1 0 .2-.1l2.3-6.5c.1-.3.2-.4.2-.4s.1.1.2.3c.2.5 1.7 4.5 2.5 6.6 0 .1.1.1.2.1.2 0 .8 0 1-.1.1 0 .1 0 .1.1 0 .2-.1.7-.1 1.1 0 .1 0 .1-.1.1s-.1-.1-.1-.1c0-.4-.2-.6-.6-.7H121zm15.5-3.3v2.1c0 .5 0 .6.3.8.3.1.7.1.9.1.5 0 1.4-.3 1.4-1.4 0-.6-.2-1.4-.9-1.9-.3-.2-.6-.3-.8-.3h-.8s-.1 0-.1.1v.5zm0-1c0 .1 0 .1.1.1h.6c.5 0 .7 0 .9-.3.2-.2.4-.6.4-1 0-.8-.4-1.7-1.3-1.7h-.5c-.1 0-.1 0-.1.1v2.8zm-.8-.2v-2.1c0-.3-.1-.5-.4-.6h-.3c-.1 0-.1 0-.1-.1s0-.1.2-.1h2.2c1.6 0 1.9 1 1.9 1.5 0 .8-.5 1.3-.9 1.7.7.2 1.7.9 1.7 2.1 0 1-.8 2.1-2.5 2.1h-2.3c-.1 0-.2 0-.2-.1 0 0 0-.1.1-.1h.2c.2 0 .2-.3.3-.5v-3.8zm14.9 3.4c1.2-1.5 3.7-4.6 4.7-5.7.4-.4.5-.6.6-.6.1 0 .1.1.1.9v5.4c0 .7.1 1 .4 1h.4c.1 0 .1 0 .1.1s0 .1-.1.1h-2.3c-.1 0-.1 0-.1-.1 0 0 0-.1.1-.1h.3c.3-.1.3-.5.3-1.2v-4.9c-.5.6-4.6 5.7-5 6.1-.2.2-.3.3-.4.3-.1 0-.1-.1-.1-.5V59c0-1.1-.1-1.1-.4-1.2h-.3c-.1 0-.1 0-.1-.1s.1-.1.2-.1h2.1c.1 0 .2 0 .2.1 0 0 0 .1-.1.1h-.3c-.3.1-.3.2-.4 1l.1 5.1zm20.1-2.8l2.2-2.2c.6-.6.7-.8.7-.9 0-.1 0-.1-.2-.2-.1 0-.1 0-.1-.1 0 0 0-.1.1-.1h1.8c.1 0 .2 0 .2.1 0 0 0 .1-.2.1-.1 0-.3 0-.4.1-.3.1-.5.2-1.1.8l-2.3 2.3c.4.4 2.1 2.4 2.7 2.9.7.6 1 .8 1.4.9h.4c.1 0 .1 0 .1.1s-.1.1-.2.1h-.8c-.9 0-1.1-.2-1.7-.7-.7-.7-1.7-1.8-2.4-2.8-.1-.1-.2-.2-.2-.3v3.1c0 .3.1.5.4.5h.4c.1 0 .1 0 .1.1 0 0 0 .1-.1.1h-2.2c-.1 0-.1 0-.1-.1 0 0 0-.1.1-.1h.3c.2 0 .3-.2.3-.5v-3.1c-.1.1-.1.2-.2.3-.7.8-1.7 2-2.5 2.8-.6.6-.8.8-1.7.8h-.8c-.1 0-.1 0-.1-.1 0 0 0-.1.1-.1h.3c.4 0 .8-.3 1.6-1 .6-.6 1.9-1.9 2.6-2.8-.2-.3-2-2-2.3-2.3-.6-.6-.8-.7-1.1-.8-.1 0-.3-.1-.4-.1-.1 0-.2 0-.2-.1 0 0 0-.1.2-.1h1.8c.1 0 .1 0 .1.1 0 0 0 .1-.1.1-.2 0-.2.1-.2.2s.1.3.7.9l2.2 2.2v-2.7c0-.3-.1-.5-.3-.5h-.3s-.1 0-.1-.1 0-.1.2-.1h1.9c.1 0 .2 0 .2.1 0 0 0 .1-.1.1h-.2c-.3 0-.3.2-.4.6v2.5zm14.6 2.8c1.2-1.5 3.7-4.6 4.7-5.7.4-.4.5-.6.6-.6.1 0 .1.1.1.9v5.4c0 .7.1 1 .4 1h.4c.1 0 .1 0 .1.1s0 .1-.1.1h-2.3c-.1 0-.1 0-.1-.1 0 0 0-.1.1-.1h.3c.3-.1.3-.5.3-1.2v-4.9c-.5.6-4.6 5.7-5 6.1-.2.2-.3.3-.4.3-.1 0-.1-.1-.1-.5V59c0-1.1-.1-1.1-.4-1.2h-.3c-.1 0-.1 0-.1-.1s.1-.1.2-.1h2.1c.1 0 .2 0 .2.1 0 0 0 .1-.1.1h-.3c-.3.1-.3.2-.4 1l.1 5.1zm23.7-.1c0 .4.1.9.5 1 .3.1.5.1.6.1 0 0 .1 0 .1.1s0 .1-.1.1c-.2 0-1.3 0-1.7-.1-.2 0-.3 0-.3-.1l.1-.1c.1 0 .1-.2 0-.3l-.5-5.1-2.4 5.1c-.2.4-.2.5-.3.5-.1 0-.1-.1-.3-.4-.3-.5-1.1-2.2-1.1-2.3-.1-.2-1.2-2.6-1.3-2.8l-.4 4.6v.5c0 .2.1.3.3.4h.5c0 .1 0 .1-.1.1h-1.7c-.1 0-.2 0-.2-.1 0 0 0-.1.1-.1h.3c.3-.1.3-.4.4-.8l.7-6.3c0-.1 0-.2.1-.2s.1 0 .1.1l3 6.1 2.9-6.1c0-.1.1-.2.1-.2.1 0 .1.1.1.3l.5 6zm16.4-2.4c0-2.3-1.4-3.6-3-3.6s-2.8 1.1-2.8 3.2c0 2.3 1.4 3.7 3.1 3.7.8.1 2.7-.4 2.7-3.3m-6.8-.1c0-1.6 1.1-3.8 3.8-3.8 2.2 0 3.8 1.4 3.8 3.6s-1.5 4-3.9 4c-2.6 0-3.7-2-3.7-3.8zm18 2.8c-.9-.8-1.2-2-1.2-2.9 0-.7.2-1.8 1.1-2.7.6-.6 1.5-1 3-1 .4 0 .9 0 1.4.1.4.1.7.1 1 .1.1 0 .1 0 .1.1v1.5c0 .1 0 .2-.1.2s-.1-.1-.1-.2c0-.4-.2-.8-.4-1-.3-.3-1.1-.6-1.9-.6-1.3 0-1.9.4-2.2.7-.7.7-.9 1.5-.9 2.5 0 1.9 1.4 3.6 3.5 3.6.7 0 1.3-.1 1.7-.5.2-.2.3-.6.4-.8 0-.1 0-.1.1-.1l.1.1c0 .1-.1.9-.2 1.2-.1.2-.1.2-.3.3-.4.2-1.1.2-1.8.2-1.6.2-2.5-.1-3.3-.8m18-1.9v2.1c0 .3.1.5.4.5h.4c.1 0 .1 0 .1.1 0 0 0 .1-.2.1h-2.2c-.1 0-.2 0-.2-.1 0 0 0-.1.1-.1h.3c.2 0 .2-.3.3-.5v-6.2h-1.4c-.6 0-.8.1-1 .3-.1.2-.1.2-.2.3 0 .1-.1.1-.1.1v-.1c0-.1.2-.9.2-1 0-.1.1-.2.1-.2.1 0 .2.1.4.1h5.4v1.2c0 .1 0 .1-.1.1 0 0-.1 0-.1-.2v-.1c0-.3-.3-.5-1.2-.5h-1.2v4.1zm12.8 1.7c1.2-1.5 3.7-4.6 4.7-5.7.4-.4.5-.6.6-.6.1 0 .1.1.1.9v5.4c0 .7.1 1 .4 1h.4c.1 0 .1 0 .1.1s0 .1-.1.1h-2.3c-.1 0-.1 0-.1-.1 0 0 0-.1.1-.1h.3c.3-.1.3-.5.3-1.2v-4.9c-.5.6-4.6 5.7-5 6.1-.2.2-.3.3-.4.3-.1 0-.1-.1-.1-.5V59c0-1.1-.1-1.1-.4-1.2h-.3c-.1 0-.1 0-.1-.1s.1-.1.2-.1h2.1c.1 0 .2 0 .2.1 0 0 0 .1-.1.1h-.3c-.3.1-.3.2-.4 1l.1 5.1z" fill="#d9b87a"/><path d="M225.7.3c-11.1 0-20.2 9.1-20.2 20.2s9.1 20.2 20.2 20.2 20.2-9.1 20.2-20.2S236.9.3 225.7.3m0 40.7c-11.3 0-20.5-9.2-20.5-20.5S214.4 0 225.7 0s20.5 9.2 20.5 20.5S237 41 225.7 41z" fill="#c1ae18"/><path d="M219.1 16.9c-7.5 0-13.5 6.1-13.5 13.5 0 7.5 6.1 13.5 13.5 13.5 7.5 0 13.5-6.1 13.5-13.5s-6.1-13.5-13.5-13.5m0 27.4c-7.6 0-13.8-6.2-13.8-13.8 0-7.6 6.2-13.8 13.8-13.8 7.6 0 13.8 6.2 13.8 13.8 0 7.6-6.2 13.8-13.8 13.8z" fill="#fff"/><path class="st0" d="M228.1 9.3c-7.9 0-14.3 6.4-14.3 14.3S220.2 38 228.1 38s14.3-6.4 14.3-14.3S236 9.3 228.1 9.3m0 29c-8.1 0-14.6-6.6-14.6-14.6 0-8.1 6.6-14.6 14.6-14.6 8.1 0 14.6 6.6 14.6 14.6.1 8-6.5 14.6-14.6 14.6z"/></svg>