<?xml version="1.0" encoding="utf-8"?>
<!-- Generator: Adobe Illustrator 22.1.0, SVG Export Plug-In . SVG Version: 6.00 Build 0)  -->
<svg version="1.1" id="Layer_1" xmlns="http://www.w3.org/2000/svg" xmlns:xlink="http://www.w3.org/1999/xlink" x="0px" y="0px"
	 viewBox="0 0 395 512" style="enable-background:new 0 0 395 512;" xml:space="preserve">
<style type="text/css">
	.st0{fill:#4AB2F4;}
</style>
<g>
	<g>
		<g>
			<path class="st0" d="M313.8,442.9l2.6-2.3c0.4-0.3,0.7-0.6,1-1c1.4-1.6,31.9-36.8,43.5-63.8h5.5c15.8,0,28.6-12.8,28.6-28.6
				v-45.2c0-15.8-12.8-28.6-28.6-28.6h-6.2c-9.5-24.8-25.7-47.1-47.2-65.3c-3.1-11.2-0.8-23.1,7-35.5c4.4-7,4.4-15.8-0.1-22.8
				c-4.5-7-12.3-10.8-20.6-9.7c-30.2,3.8-48.3,17.4-58.8,30.2c-9.9-2.7-20.2-4.8-30.5-6c-5.6-0.6-10.9,3.3-11.5,9.1
				c-0.6,5.6,3.3,10.9,9.1,11.5c11.5,1.4,22.9,3.9,33.7,7.3c4.4,1.4,9.1-0.3,11.7-4.1c7.1-10.6,21.4-23.9,48.8-27.4
				c0.2,0,0.4,0,0.6,0.3c0.2,0.3,0.1,0.5,0,0.6c-10.9,17.3-14.1,35.4-9.3,52.3c0.1,3,1.5,5.9,3.9,7.7c22,17.8,38,40.3,46.2,65.3
				c1.4,4.3,5.4,7.1,9.8,7.1l0,0h13.4c4.4,0,7.9,3.6,7.9,7.9v45.2c0,4.4-3.6,7.9-7.9,7.9h-12.6c-4.5,0-8.6,2.9-9.9,7.3
				c-5.9,19.1-31.5,51.5-41.6,63.1l-2.3,2c-21.5,19.4-23.7,42.4-23.8,49.3v14.5h-59.7v-14c0-2.9-1.3-5.7-3.4-7.7
				c-2.2-2-5.1-2.9-8-2.6c-15.3,1.6-30.6,1.4-45.4-0.6c-2.9-0.4-6,0.5-8.1,2.5c-2.3,2-3.6,4.8-3.6,7.8v14.5H88.2v-4.1
				c0-0.1,0-0.3,0-0.4c-0.5-11-4-38.8-25.7-61.1c-10.2-10.6-19.4-24.6-27.4-41.5c-0.1-0.1-0.1-0.2-0.2-0.4
				c-4.7-9-8.3-18.5-10.7-28.5l-0.1-0.4c0-0.1-0.1-0.2-0.1-0.3c-3.8-12.5-3.3-28.3-3.3-28.4c0-0.1,0-0.2,0-0.3
				c0-6.9,0.6-13.9,1.7-20.7c0.9-5.6-2.8-11-8.5-11.9c-5.6-0.9-11,2.8-11.9,8.5c-1.4,7.8-2,15.9-2,23.9c-0.1,2.1-0.3,19.6,4.2,34.8
				l0,0c2.7,11.2,6.9,22.1,12.2,32.6c8.8,19,19.3,34.8,31.1,47c16.6,17.1,19.4,38.7,19.8,47.4v4.3c0,0.4,0,0.7,0.1,1.4
				c0.7,10.6,9.6,18.9,20.2,18.9h60.5c11.2,0,20.3-9.1,20.3-20.3v-3.4c9.1,0.7,18.1,0.8,27.3,0.4v3c0,11.2,9.1,20.3,20.3,20.3h60.5
				c11.2,0,20.3-9.1,20.3-20.3V477C296.9,473.8,298.1,457,313.8,442.9z"/>
			<path class="st0" d="M0.9,200c0,46.9,38.1,85.1,85.1,85.1c46.9,0,85.1-38.1,85.1-85.1c0-46.9-38.1-85.1-85.1-85.1
				C39.1,114.8,0.9,152.9,0.9,200z M150.5,200c0,35.5-28.9,64.5-64.5,64.5S21.6,235.5,21.6,200s28.9-64.5,64.5-64.5
				S150.5,164.4,150.5,200z"/>
			<path class="st0" d="M242.6,59.3C242.6,26.6,216,0,183.3,0s-59.3,26.6-59.3,59.3s26.6,59.3,59.3,59.3S242.6,92,242.6,59.3z
				 M144.5,59.3c0-21.3,17.3-38.7,38.7-38.7s38.7,17.3,38.7,38.7S204.5,98,183.2,98S144.5,80.6,144.5,59.3z"/>
		</g>
	</g>
</g>
</svg>
