<svg width="280" height="280" viewBox="0 0 280 280" fill="none" xmlns="http://www.w3.org/2000/svg">
<path d="M42.0149 21.0868C54.6446 21.0868 67.2812 20.8575 79.9039 21.1442C97.9983 21.5729 113.918 27.9403 127.446 39.8885C141.269 52.0889 149.664 67.3893 152.037 85.6246C155.085 109.024 148.526 129.63 132.402 146.996C121.011 159.256 106.859 166.653 90.3519 169.608C86.3685 170.319 86.3962 170.308 83.3574 167.153C75.8899 159.407 68.4108 151.675 60.9202 143.956C49.292 131.93 37.6652 119.901 26.04 107.868C17.9351 99.479 9.82172 91.0809 1.6999 82.6737C1.46905 82.4535 1.28801 82.1868 1.16884 81.8915C1.04966 81.5961 0.995087 81.2789 1.00875 80.9609C1.02718 61.395 1.02718 41.8328 1.00875 22.2745C1.00414 21.2427 1.29442 21.0387 2.28047 21.041C15.526 21.0746 28.7708 21.0822 42.0149 21.0639V21.0868Z" fill="#98A5B1"/>
<path d="M157 257.896C156.571 258.245 156.173 258.112 155.811 258.112C136.152 258.112 116.492 258.118 96.8328 258.13C96.5146 258.15 96.196 258.099 95.9004 257.98C95.6049 257.861 95.3401 257.677 95.1257 257.442C80.8848 242.668 66.6287 227.908 52.3571 213.162L50.1017 210.821C37.6494 197.91 29.8071 189.816 17.4769 177.072C9.33283 168.657 1.78544 160.861 1.00905 160.05V95.7435L157 257.896Z" fill="#98A5B1"/>
<path d="M1.01614 175.994L80.9319 257.908C80.4712 258.238 80.0726 258.112 79.7086 258.112C53.9424 258.112 28.1769 258.123 2.41227 258.144C1.30412 258.144 0.997709 257.894 1.00001 256.768C1.0338 230.324 1.04302 203.884 1.02766 177.45L1.01614 175.994Z" fill="#1B64FA"/>
</svg>
