<svg xmlns="http://www.w3.org/2000/svg" viewBox="0 0 63.2 58.4"><path fill="none" d="M-29.7-31.7H93.2V91.2H-29.7z"/><path d="M55.2 42.3c0 6.1-4.9 11-11 11H19.3c-6.1 0-11-4.9-11-11V17.4c0-6.1 4.9-11 11-11h24.9c6.1 0 11 4.9 11 11v24.9zM43.9 1H19.6C10.4 1 3 8.4 3 17.6v24.3c0 9.2 7.4 16.6 16.6 16.6h24.3c9.2 0 16.6-7.4 16.6-16.6V17.6C60.5 8.4 53 1 43.9 1z"/><path d="M31.7 39.5c-5.3 0-9.7-4.3-9.7-9.7 0-5.3 4.3-9.7 9.7-9.7 5.3 0 9.7 4.3 9.7 9.7 0 5.4-4.3 9.7-9.7 9.7zm0-24.5c-8.2 0-14.9 6.7-14.9 14.9s6.7 14.9 14.9 14.9 14.9-6.7 14.9-14.9C46.6 21.6 40 15 31.7 15zm15.4-4.1c-1.9 0-3.5 1.6-3.5 3.5s1.6 3.5 3.5 3.5 3.5-1.5 3.5-3.5-1.5-3.5-3.5-3.5z"/></svg>