<svg height="512pt" viewBox="-40 0 512 512" width="512pt" xmlns="http://www.w3.org/2000/svg"><path d="M432.004 0H269.789l-53.992 53.992L162.254 0H0l141.004 142.176v56.875c-53.383 27.355-90 82.957-90 146.949 0 91.531 74.016 166 165 166 90.98 0 165-74.469 165-166 0-63.992-36.621-119.594-90-146.95v-56.874zm-149.79 30H360l-83.996 84.7-39.082-39.407zm-132.46 0L240 121h-77.746l-90.25-91zm201.25 316c0 74.992-60.563 136-135 136-74.442 0-135-61.008-135-136 0-74.438 60.558-135 135-135 74.437 0 135 60.563 135 135zm-135-165c-15.598 0-30.692 2.176-45 6.238V151h90v36.238c-14.313-4.062-29.406-6.238-45-6.238zm0 0"/><path d="M182.969 305.238l-74.754 10.606 54.12 51.511-12.683 72.2 66.352-34.059 66.348 34.059-12.684-72.2 54.121-51.511-74.754-10.606-33.031-65.343zm75.246 31.606l-20.88 19.867 5.024 28.594-26.355-13.532-26.36 13.532 5.024-28.594-20.879-19.867 28.89-4.098 13.325-26.351 13.32 26.351zm0 0"/></svg>