<svg height="512pt" viewBox="0 0 512 512" width="512pt" xmlns="http://www.w3.org/2000/svg"><path d="M481 .188l-210 70v170.82h-30V151h-30V91h-60V0h-30v91H61v60H31v331H0v30h512v-30h-31zM91 121h90v30H91zm60 361h-30v-61h30zm-60-91v91H61V181h150v301h-30v-91zm210 91v-91h30v91zm60 0v-91h30v91zm-90-121v121h-30V271l60-.004V91.813l150-50V482h-30V361zm0 0"/><path d="M151 331h30v30h-30zm-60 0h30v30H91zm0-60h30v30H91zm60 0h30v30h-30zm0-60h30v30h-30zm120 90h30v30h-30zm60 0h30v30h-30zm60 0h30v30h-30zM91 211h30v30H91zm240-30h90v30h-90zm0 60h90v30h-90zm0-120h90v30h-90zm0 0"/></svg>