<?xml version="1.0" encoding="utf-8"?>
<!-- Generator: Adobe Illustrator 22.0.1, SVG Export Plug-In . SVG Version: 6.00 Build 0)  -->
<svg version="1.1" id="Слой_1" xmlns="http://www.w3.org/2000/svg" xmlns:xlink="http://www.w3.org/1999/xlink" x="0px" y="0px"
	 viewBox="0 0 512 255.3" style="enable-background:new 0 0 512 255.3;" xml:space="preserve">
<style type="text/css">
	.st0{fill:#FFFFFF;}
</style>
<path class="st0" d="M508.6,119.4L392.3,3.1c-4.2-4.9-11.5-5.4-16.4-1.3c-4.9,4.2-5.5,11.5-1.3,16.4c0.4,0.5,0.8,0.9,1.3,1.3
	l96.5,96.6H11.6c-6.4,0-11.6,5.2-11.6,11.6c0,6.4,5.2,11.6,11.6,11.6h460.7l-96.5,96.5c-4.9,4.2-5.5,11.5-1.3,16.4
	s11.5,5.5,16.4,1.3c0.5-0.4,0.9-0.8,1.3-1.3l116.4-116.4C513.1,131.3,513.1,124,508.6,119.4L508.6,119.4z"/>
</svg>
