<svg viewBox="0 -56 512 512" xmlns="http://www.w3.org/2000/svg"><path d="m120 180c16.542969 0 30-13.457031 30-30s-13.457031-30-30-30-30 13.457031-30 30 13.457031 30 30 30zm0 0"/><path d="m211 180c16.542969 0 30-13.457031 30-30s-13.457031-30-30-30-30 13.457031-30 30 13.457031 30 30 30zm0 0"/><path d="m301 180c16.542969 0 30-13.457031 30-30s-13.457031-30-30-30-30 13.457031-30 30 13.457031 30 30 30zm0 0"/><path d="m393.359375 75.148438c-9.632813-11.980469-21.664063-23.0625-35.933594-32.941407-39.316406-27.21875-91.316406-42.207031-146.425781-42.207031-55.152344 0-107.316406 14.980469-146.882812 42.179688-41.347657 28.421874-64.117188 66.714843-64.117188 107.820312 0 42.925781 24.703125 79.652344 60 105.261719v84.007812l74.0625-37.03125c39.601562 36.335938 101.023438 57.761719 166.9375 57.761719 20.25 0 40.21875-2.03125 59.4375-6.042969l91.5625 45.167969v-83.863281c35.304688-25.613281 60-62.34375 60-105.261719 0-65.09375-56.21875-113.15625-118.640625-134.851562zm-363.359375 74.851562c0-30.929688 18.152344-60.441406 51.109375-83.097656 34.617187-23.796875 80.746094-36.902344 129.890625-36.902344 49.0625 0 95 13.09375 129.347656 36.875 32.664063 22.613281 50.652344 52.132812 50.652344 83.125s-17.988281 60.511719-50.652344 83.125c-34.347656 23.777344-80.28125 36.875-129.347656 36.875-36.296875 0-61.460938-7.15625-64.253906-7.644531l-56.746094 28.375v-51.355469c-2.507812-2.402344-60-32.527344-60-89.375zm392 149.375v51.5l-57.789062-28.507812c-3.375.59375-27.699219 7.632812-63.210938 7.632812-45.285156 0-89.019531-11.6875-122.101562-31.6875 10.585937 1.105469 21.371093 1.6875 32.101562 1.6875 55.109375 0 107.109375-14.988281 146.425781-42.207031 40.996094-28.382813 63.574219-66.664063 63.574219-107.792969 0-10.898438-1.601562-21.59375-4.695312-31.960938 40.851562 22.707032 65.695312 56.457032 65.695312 91.960938 0 56.613281-57.625 87.101562-60 89.375zm0 0"/></svg>