<svg viewBox="0 0 512 512" xmlns="http://www.w3.org/2000/svg"><path d="m0 512h480v-145.269531l-47.289062-23.644531c10.683593-10.839844 17.289062-25.703126 17.289062-42.085938h62v-301h-392v249.070312c-8.832031-5.121093-19.074219-8.070312-30-8.070312-33.085938 0-60 26.914062-60 60 0 16.382812 6.605469 31.246094 17.289062 42.085938l-47.289062 23.644531zm150-211h30c0 16.382812 6.605469 31.246094 17.289062 42.085938l-32.289062 16.144531-32.289062-16.144531c10.683593-10.839844 17.289062-25.703126 17.289062-42.085938zm150 0h30c0 16.382812 6.605469 31.246094 17.289062 42.085938l-32.289062 16.144531-32.289062-16.144531c10.683593-10.839844 17.289062-25.703126 17.289062-42.085938zm60 0c0-16.542969 13.457031-30 30-30s30 13.457031 30 30-13.457031 30-30 30-30-13.457031-30-30zm-120 30c-16.542969 0-30-13.457031-30-30s13.457031-30 30-30 30 13.457031 30 30-13.457031 30-30 30zm-60 151v-96.730469l48.539062-24.269531h22.921876l48.539062 24.269531v96.730469zm270 0h-120v-96.730469l48.539062-24.269531h22.921876l48.539062 24.269531zm32-452v241h-40.070312c-10.394532-17.914062-29.769532-30-51.929688-30s-41.535156 12.085938-51.929688 30h-46.140624c-10.394532-17.914062-29.769532-30-51.929688-30s-41.535156 12.085938-51.929688 30h-38.070312v-241zm-392 241c16.542969 0 30 13.457031 30 30s-13.457031 30-30 30-30-13.457031-30-30 13.457031-30 30-30zm-60 114.269531 48.539062-24.269531h22.921876l48.539062 24.269531v96.730469h-120zm0 0"/><path d="m255 157.214844 60 60 105-105v38.785156h30v-90h-90v30h38.785156l-83.785156 83.785156-60-60-70.605469 70.609375 21.210938 21.210938zm0 0"/></svg>